<svg width="178" height="138" viewBox="0 0 178 138" fill="none" xmlns="http://www.w3.org/2000/svg">
<rect width="152.619" height="109.651" rx="10" transform="matrix(0.977485 0.211006 -0.262805 0.964849 28.8167 0)" fill="url(#paint0_linear_87_15)" fill-opacity="0.69"/>
<path d="M70.412 59.728V64.66H63.716V85H57.56V64.66H50.864V59.728H70.412ZM81.6735 85.288C79.9215 85.288 78.3615 84.988 76.9935 84.388C75.6255 83.788 74.5455 82.972 73.7535 81.94C72.9615 80.884 72.5175 79.708 72.4215 78.412H78.5055C78.5775 79.108 78.9015 79.672 79.4775 80.104C80.0535 80.536 80.7615 80.752 81.6015 80.752C82.3695 80.752 82.9575 80.608 83.3655 80.32C83.7975 80.008 84.0135 79.612 84.0135 79.132C84.0135 78.556 83.7135 78.136 83.1135 77.872C82.5135 77.584 81.5415 77.272 80.1975 76.936C78.7575 76.6 77.5575 76.252 76.5975 75.892C75.6375 75.508 74.8095 74.92 74.1135 74.128C73.4175 73.312 73.0695 72.22 73.0695 70.852C73.0695 69.7 73.3815 68.656 74.0055 67.72C74.6535 66.76 75.5895 66.004 76.8135 65.452C78.0615 64.9 79.5375 64.624 81.2415 64.624C83.7615 64.624 85.7415 65.248 87.1815 66.496C88.6455 67.744 89.4855 69.4 89.7015 71.464H84.0135C83.9175 70.768 83.6055 70.216 83.0775 69.808C82.5735 69.4 81.9015 69.196 81.0615 69.196C80.3415 69.196 79.7895 69.34 79.4055 69.628C79.0215 69.892 78.8295 70.264 78.8295 70.744C78.8295 71.32 79.1295 71.752 79.7295 72.04C80.3535 72.328 81.3135 72.616 82.6095 72.904C84.0975 73.288 85.3095 73.672 86.2455 74.056C87.1815 74.416 87.9975 75.016 88.6935 75.856C89.4135 76.672 89.7855 77.776 89.8095 79.168C89.8095 80.344 89.4735 81.4 88.8015 82.336C88.1535 83.248 87.2055 83.968 85.9575 84.496C84.7335 85.024 83.3055 85.288 81.6735 85.288ZM105.852 85L99.7318 76.576V85H93.5758V58.36H99.7318V73.084L105.816 64.912H113.412L105.06 74.992L113.484 85H105.852ZM121.986 68.26C122.706 67.156 123.606 66.292 124.686 65.668C125.766 65.02 126.966 64.696 128.286 64.696V71.212H126.594C125.058 71.212 123.906 71.548 123.138 72.22C122.37 72.868 121.986 74.02 121.986 75.676V85H115.83V64.912H121.986V68.26Z" fill="white"/>
<defs>
<linearGradient id="paint0_linear_87_15" x1="33.827" y1="20.8752" x2="132.974" y2="150.741" gradientUnits="userSpaceOnUse">
<stop stop-color="#47EDFD"/>
<stop offset="1" stop-color="#76D7DD" stop-opacity="0"/>
</linearGradient>
</defs>
</svg>
