<svg width="101" height="86" viewBox="0 0 101 86" fill="none" xmlns="http://www.w3.org/2000/svg">
<rect width="86.9954" height="67.9284" rx="10" transform="matrix(0.973027 0.23069 -0.240711 0.970597 16.3511 0)" fill="url(#paint0_linear_2_9)" fill-opacity="0.69"/>
<path d="M33.2066 34.1879V38.0239H27.9986V53.8439H23.2106V38.0239H18.0026V34.1879H33.2066ZM41.9655 54.0679C40.6029 54.0679 39.3895 53.8345 38.3255 53.3679C37.2615 52.9012 36.4215 52.2665 35.8055 51.4639C35.1895 50.6425 34.8442 49.7279 34.7695 48.7199H39.5015C39.5575 49.2612 39.8095 49.6999 40.2575 50.0359C40.7055 50.3719 41.2562 50.5399 41.9095 50.5399C42.5069 50.5399 42.9642 50.4279 43.2815 50.2039C43.6175 49.9612 43.7855 49.6532 43.7855 49.2799C43.7855 48.8319 43.5522 48.5052 43.0855 48.2999C42.6189 48.0759 41.8629 47.8332 40.8175 47.5719C39.6975 47.3105 38.7642 47.0399 38.0175 46.7599C37.2709 46.4612 36.6269 46.0039 36.0855 45.3879C35.5442 44.7532 35.2735 43.9039 35.2735 42.8399C35.2735 41.9439 35.5162 41.1319 36.0015 40.4039C36.5055 39.6572 37.2335 39.0692 38.1855 38.6399C39.1562 38.2105 40.3042 37.9959 41.6295 37.9959C43.5895 37.9959 45.1295 38.4812 46.2495 39.4519C47.3882 40.4225 48.0415 41.7105 48.2095 43.3159H43.7855C43.7109 42.7745 43.4682 42.3452 43.0575 42.0279C42.6655 41.7105 42.1429 41.5519 41.4895 41.5519C40.9295 41.5519 40.5002 41.6639 40.2015 41.8879C39.9029 42.0932 39.7535 42.3825 39.7535 42.7559C39.7535 43.2039 39.9869 43.5399 40.4535 43.7639C40.9389 43.9879 41.6855 44.2119 42.6935 44.4359C43.8509 44.7345 44.7935 45.0332 45.5215 45.3319C46.2495 45.6119 46.8842 46.0785 47.4255 46.7319C47.9855 47.3665 48.2749 48.2252 48.2935 49.3079C48.2935 50.2225 48.0322 51.0439 47.5095 51.7719C47.0055 52.4812 46.2682 53.0412 45.2975 53.4519C44.3455 53.8625 43.2349 54.0679 41.9655 54.0679ZM60.7708 53.8439L56.0108 47.2919V53.8439H51.2228V33.1239H56.0108V44.5759L60.7428 38.2199H66.6508L60.1548 46.0599L66.7068 53.8439H60.7708ZM73.3194 40.8239C73.8794 39.9652 74.5794 39.2932 75.4194 38.8079C76.2594 38.3039 77.1927 38.0519 78.2194 38.0519V43.1199H76.9034C75.7087 43.1199 74.8127 43.3812 74.2154 43.9039C73.6181 44.4079 73.3194 45.3039 73.3194 46.5919V53.8439H68.5314V38.2199H73.3194V40.8239Z" fill="white"/>
<defs>
<linearGradient id="paint0_linear_2_9" x1="19.2819" y1="12.9321" x2="81.8607" y2="88.3527" gradientUnits="userSpaceOnUse">
<stop stop-color="#47EDFD"/>
<stop offset="1" stop-color="#76D7DD" stop-opacity="0"/>
</linearGradient>
</defs>
</svg>
